<svg width="128" height="128" fill="none" xmlns="http://www.w3.org/2000/svg"><path fill-rule="evenodd" clip-rule="evenodd" d="M89.515 47.314c-.58.62-1.083 1.274-1.442 1.995-.254.479.244 1.233.603.992 1.287-.604 2.599-.976 3.933-1.094.93-.1 1.866-.094 2.821.138l.423.333c.588-.143 1.242-.178 1.952-.113.518.223.998.484 1.382.847-.588.337-1.563.337-3.236-.265l-1.585-.235c-1.644-.06-2.619 0-3.502.456-.246.417-.045.6.728.574.486-.018 1.345.104 2.07.297.097.163.112.294-.13.28-.737.057-1.407.265-1.936.768a.6.6 0 0 0-.078.46l-3.195-.695-2.948-.446c-.138.197-.254.474.653.849.117.048.32-.01.47.036 1.92.276 3.839.53 5.18 1.31-.375 1.105-.784 2.197-1.71 3.1a44.08 44.08 0 0 1-3.393-4.056c-.049.03-.076.1-.081.199-.03.456.526 1.105.76 1.502.695 1.182 1.335 2.324 1.869 2.871.235.242.401.381.722.31.527-.122 1.038-.528 1.642-1.604.406-.595.636-1.306.765-2.08.506.065 1.006.349 1.507.69.137.14.428.246.55.368.629.661 1.004.909 1.13.097-.001-.64-.266-1.003-.941-.996l-2.212-1.015c-.209-.23-.176-.453.023-.678.708-.015 1.342.02 2.013-.093 2.485-1.186 1.258-1.663-.97-1.967.795-.061 1.63-.102 2.61.28 1.054.36 2.097.555 3.102.282 1.178-.35.29-1.053-1.048-1.832.802-.35 1.655-.637 2.387-1.175.331-.244.802-.407.913-.842.146-.565-.864-.891-2.144-1.038-.64.004-.88-.088-.534-.32l1.705-.602c.106-.154.2-.3.205-.434.019-.85-.314-.27-.472-.08-.54.653-1.557.73-2.422.882l-.884-.464c-.588-.287-.728-.07-.556.485-.389.376-.505.72.138.969.757-.195 1.45-.36 1.504-.01-.454.077-.867.3-1.254.626a4.195 4.195 0 0 0-.584-.38c-.421-.212-.353-.015-.225.263.072.153.142.29.09.41-.115.267-.58.304-1.144.647-.679.746-.555.111-.437-.15.476-.408.79-.9.87-1.515a4.691 4.691 0 0 1 .8-1.806c.468-.716.588-1.244.367-1.565-.13-.927-.252-1.335-.57-1.447-.134.06-.144.577-.049 1.471-.228 1.04-.729 1.995-1.175 2.967-.576 1.069-1.413 1.308-1.586.89.277-.45.55-.896.73-1.407.267-.717-.043-1.048-.806-1.152.136.269.242.544.253.83-.31 1.062-1.153 2.059-1.403 3.057-1.267.279-2.099.652-2.267.583-.172-.069.11-.533.94-1.157.72-.44.716-.55.538-.664-.258-.166-1.056.168-1.429.263Zm3.642.572c-.165-.106-.093-.128-.211-.146-.05-.009-.2-.034-.343.045-.19.109-.367.341-.268.445.173.18.989.273 1.09.113.102-.16-.102-.35-.268-.457Zm.881-.6c-.073-.085-.485.035-.563.18a.236.236 0 0 0-.012.2.786.786 0 0 0 .234.295c.075.051.143-.145.217-.258.071-.114.198-.331.124-.417Zm2.435.82c-.032-.04-.117-.072-.223-.056-.234.04-.577.213-.735.307-.228.138-.375.299-.321.389.054.09.186.063.513-.013.324-.075.871-.505.766-.627Zm1.394-.633c-.088-.056-.43.075-.585.314-.154.239-.295.382-.204.528.09.148.416.073.565-.284.148-.357.31-.503.224-.558Zm1.608-.775c-.156-.015-.516-.252-.686-.201-.14.04-.2.256-.265.477-.02.067-.363.05-.305.2.04.097.258.411.144.508-.119.1-.133.285-.225.404-.276.351-.513.656-.413.711.134.075.94-.5 1.576-.758.158-.064.562-.219.876-.398.322-.19.541-.566.544-.691.002-.187-1.108-.242-1.246-.252Zm-17.967-16.17L79.435 32.9c-.205.385-3.143-.457-4.715-.69-.929-.133-1.856-.267-2.784-.403-.265.232-.128.523.413.875 2.23.876 4.222.766 6.3 1.204-.816.981-1.96 1.696-3.176 2.353-2.565 1.407-3.927 1.265-4.617.258-.309-.345-.497-.668-.86-1.036-.18.149.074.673.546 1.507 1.05 2.034 3.748 1 7.374-1.459.28.712.372 1.42.375 2.136.13 1.477-.353 2.254.162 2.793.3.315.885.403 1.528.469.414.023.438-.892.06-1.236-1.391-1.24-1.513-3.05-1.661-4.356.573-.731 1.178-1.343 1.884-1.371.873.078 1.772.474 2.434.498.466.017.79-.134.839-.465a.97.97 0 0 0-.62-.859c-.686.916-1.781.124-2.592.025.31-.865.92-1.543 1.74-2.102 1.035-.774 1.207-1.413.43-1.903-.2.57-.573.999-.987 1.391Zm-34.352 3.244c-.278 1.052-.22 1.56.438 1.094.578-.384 1.206-1.026 1.843-1.715.304-.198.097-.771-.21-.83-.12-.024-.405.251-.489.34a9.482 9.482 0 0 0-.725.872c-.144.214-.256.32-.296.185-.017-.805.088-1.622.266-2.442-.025-.25-.07-.413-.18-.287-.258.94-.497 1.872-.647 2.783Zm2.436-3.887-.056.29c-.302 1.348-.065 1.423.606.862.388-.993 1.115-1.742 2.13-2.286-.47 1.342-1.188 2.516-1.883 3.702a50.407 50.407 0 0 0-2.323 4.101c-.217.479-.35.876-.248 1.04.188.305.583-.224.711-.339.2-.18.414-.332.667-.405.315-.09.292.033.242.307-.086.467-.332.934-.56 1.4-.084.173-.383.543-.023.42.261-.091.52-.39.777-.915.096-.195.172-.4.223-.612a2.53 2.53 0 0 0 .052-.854c-.108-.207-.391-.265-.925-.104-.204.107-.298.105-.237-.057.55-1.447 1.328-2.846 2.218-4.264.712-1.018 1.302-2.056 1.619-3.044.072-.217.233-.551.017-.747-.211-.219-.616-.033-1.118.35-.33.255-.623.517-.897.83-.277.319-.387.327-.323.024.094-1.117.843-2.179 1.055-3.297.05-.293.043-.49-.026-.6a.217.217 0 0 0-.123-.095c-.309-.104-.283.109-.329.328-.091.446-.206.879-.336 1.304-.211.693-.464 1.36-.712 2.01-.069.178-.124.478-.198.65Zm-.14 9.183c-.241.153.194.393.337.928.043.15.076.319.098.506.095.856-.025 1.293.52 1.276.55-.013.66-.66.119-1.6l-.209-.356c-.397-.644-.686-.866-.866-.754Zm.585-3.556c-.059.42.208.456.752.266-.062.422-.155.839.02 1.222.076.078.175.14.297.182l.253.06c.1.314.258.602.426.882.158.263.114.231.407.288.256.052.439.106.55.22.59.617-.656 1.858-1.046.607-.273-.535-.397-.66-.534-.29-.07.202-.076.395-.04.577.104.5.306.744.809.78.548.038 1.09-.31 1.32-.792.21-.447.134-.86-.089-1.156-.337-.45-.516-.239-.876-.345-.151-.046-.23-.257-.322-.521-.107-.39-.306-.609-.57-.707-.24-.135-.33-.377-.185-.868.063-.205.113-.311.083-.533-.029-.226-.136-.349-.379-.288-.08.011-.128 0-.147-.021-.012-.017.066-.268.072-.313l.13-.644c.063-.378-.23-.469-.367-.148-.268.524-.413 1.03-.564 1.542Zm1.346-1.337c.113.335.26.47.482.157.357-1.06.64-3.01 1.212-1.495l.198 2.925c.362 1.453.94 1.88 1.667 1.607.882-.36 1.408-.849 1.743-.718.344.132.545.606.093 1.409-.204.283-.4.143-.645.162-.579.05-1.206.027-1.574.219-.358.188-.561.457-.63.842-.03.979.832 1.04 2.983-.092.088-.045.127-.145.221-.195.802.192 1.51.395 2.132.502.455.08.919-.036.341-.479-.324-.248-.959-.476-1.691-.713-.083-.026-.14-.088-.221-.116.227-.55.354-1.064.18-1.524-.291-.662-1.001-.74-1.946-.492-.519.096-1.102.527-1.34.489-.282-.045-.287-.629-.329-.869l-.486-2.792c-.353-2.01-.899-1.969-1.514-1.092-.338.74-.655 1.512-.876 2.265Zm3.446 4.479c-.27.136-.345.5-.28.635.07.13.365.01.739-.146s.735-.346.35-.42c-.386-.075-.541-.204-.81-.07ZM30.276 50.562c.473.511.723 1.207 1.082 1.81.059.062.095.179.193.22.297.129.766.089.983-.132.289-.284-.195-.915-.406-1.126a7.297 7.297 0 0 0-1.45-1.11c-.595-.18-.87-.196-.402.338Zm1.222-3.105c.028.075.034.096-.036.09-.886-.07-.203.593.837 1.288a6.161 6.161 0 0 0 .193 1.636c.34.656.486.643.503.175-.106-.47-.333-.983-.196-1.361.357.472.692.98 1.016 1.509.201.273.515.518.532.917.05 1.138-.654 2.797-.92 4.205l-.65 2.56c.692.712 1.362-.98 2.022-4.084l.393-1.447c.818.873 1.615.919 2.386-.243 1.138 1.233 1.565 2.344.736 3.33-.321.405-.614.589-.962.93-.147.195-.119.28-.063.297.054.015.136-.036.267-.098.577-.275.99-.6 1.262-.973.43-.592.5-1.296.303-2.084a6.909 6.909 0 0 0-.873-2.16l1.843-2.69c.253-.463-.187-.833-.89-.375-.08.044-.103.138-.173.172-.697.31-.742.42-.327.584l-.334.457-.715.902c-.2-.562-.484-.943-1.357-1.126l-.347-.26c.33-.681.516-1.52 1.31-1.68.752-.081 1.166-.556 1.175-1.5-.32-.442-.747-.638-1.349-.436-.827.074-1.16 1.56-2.022 3.657-.486.266-.429.487-.174.697l-.188.415-1.121-1.949c.598-.442 1.048-1.028 1.192-1.9.093-1.002.126-1.992-.206-2.914-.183-.512-.327-.898-.922-.499-.658.442-1.199 1.78-1.53 3.01-.038.26-.2.215-.489-.139-.495-.717-1.046-1.356-1.75-1.797-.602.12-.845.556-.606.667.16.04.361-.018.486.06.773.503 1.048 1.508 1.744 2.157Zm4.401 3.04c-.194.41-.6.988-.51 1.452.078.402.423.624.9.773.361 0 .72-.563.792-.989l-1.182-1.236Zm-3.142-4.298c-.093.612-.12 1.828.315 1.862.438.033 1.072-.827 1.093-1.564.018-.736-.003-2.285-.358-2.34-.354-.055-.953 1.432-1.05 2.042ZM68.394 75c0 .156.046.284.143.384a.441.441 0 0 0 .326.148c.118 0 .224-.05.317-.151a.54.54 0 0 0 .142-.384.543.543 0 0 0-.143-.385.436.436 0 0 0-.328-.15.426.426 0 0 0-.32.145.547.547 0 0 0-.137.393Zm.053-1.528a.4.4 0 0 0 .115.297.422.422 0 0 0 .306.112.372.372 0 0 0 .28-.112.394.394 0 0 0 .108-.288.391.391 0 0 0-.405-.414.398.398 0 0 0-.292.113.392.392 0 0 0-.112.292Zm-.443.697a.918.918 0 0 0-.448.335.93.93 0 0 0-.146.53c0 .212.052.406.156.578a.973.973 0 0 0 .452.392c.199.089.486.134.861.134.202 0 .39-.02.567-.06.176-.039.324-.1.443-.186a.994.994 0 0 0 .3-.356c.082-.154.122-.32.122-.498a.932.932 0 0 0-.142-.503.995.995 0 0 0-.43-.366c.146-.097.252-.197.32-.3a.837.837 0 0 0-.204-1.13c-.227-.182-.577-.273-1.052-.273-.358 0-.647.073-.864.219-.28.188-.419.432-.419.729 0 .18.048.34.145.478a.94.94 0 0 0 .339.277Zm-1.015 1.908v-.804h-1.54c.09-.089.17-.16.236-.215.067-.055.2-.151.4-.288.333-.236.564-.452.69-.65a1.12 1.12 0 0 0 .19-.62.97.97 0 0 0-.62-.915c-.195-.079-.465-.119-.81-.119-.334 0-.594.042-.782.125a.997.997 0 0 0-.437.358c-.103.156-.174.373-.214.651l.988.08c.028-.201.083-.34.161-.419.08-.08.183-.12.31-.12.12 0 .221.04.301.117.08.076.12.169.12.277 0 .1-.04.206-.121.317-.081.11-.266.275-.554.488-.474.351-.796.656-.968.912a1.872 1.872 0 0 0-.31.825h2.96Zm-4.334-2.38c0-.191-.048-.343-.146-.451a.451.451 0 0 0-.352-.164c-.132 0-.24.05-.327.148-.086.098-.129.246-.129.443 0 .198.044.35.134.454.09.106.201.159.335.159a.446.446 0 0 0 .346-.154c.093-.102.139-.247.139-.435Zm-1.816 1.583c.058.19.141.346.25.472.107.127.243.222.406.288.163.065.387.098.668.098.478 0 .853-.149 1.122-.447.27-.298.404-.768.404-1.408 0-.435-.065-.787-.193-1.052-.128-.266-.3-.46-.515-.581-.213-.123-.499-.184-.855-.184-.295 0-.54.05-.735.15-.196.1-.349.246-.46.44a1.265 1.265 0 0 0-.167.643c0 .346.11.632.328.858.218.226.487.338.805.338.162 0 .306-.028.432-.084.124-.057.244-.146.363-.267-.033.381-.082.63-.146.749-.09.159-.213.24-.37.24a.317.317 0 0 1-.226-.086c-.061-.056-.104-.153-.13-.29l-.981.123Zm-1.117-2.814h-.816a1.6 1.6 0 0 1-.435.563c-.186.151-.446.281-.782.39v.808c.227-.07.417-.141.567-.218a3.08 3.08 0 0 0 .469-.297v2.365h.997v-3.61Zm11.911-13.083v-4.88H68.04v12.019h1.575v-5.087h.607v-2.052h1.411Zm3.289 8.352v-5.436h-4.314v4.632c1.29.213 2.406.68 3.189 1.302h.327a5.46 5.46 0 0 1 .798-.498Zm3.919-7.43h-7.79v1.42h4.273v-.597h2.08v.597h1.437v-1.42Zm-2.029 6.773V61.82h-1.135v5.583a8.083 8.083 0 0 1 1.135-.326Zm7.981-7.799h-4.98v2.936h3.542v5.913c.124.087.242.178.352.273h1.087v-9.122Zm-2.189 3.485h-4.98v4.179c.384-.047.783-.07 1.19-.07 1.438 0 2.76.305 3.79.814v-4.923ZM62.556 52.644v14.27c.619.23 1.163.521 1.606.864h.761a6.54 6.54 0 0 1 .72-.35V52.645h-3.087Zm3.75 13.958h.792V53.218h-.792v13.383Zm-9.684-7.531h1.412v2.05h.605v5.087h1.576V54.19h-3.593v4.88Zm4.479-5.853v13.31c.125.022.249.046.37.073h.423V53.219H61.1Zm-7.837 14.22.042.028h1.857c.745-.457 1.693-.794 2.757-.962v-4.97h-4.656v5.905Zm-3.578-7.991v1.42h1.437v-.597h2.079v.597h4.273v-1.42h-7.789Zm1.787 7.174.015.005h1.12v-5.934h-1.135v5.93Zm-7.68-8.955v9.121h1.44v-6.185h3.542v-2.936h-4.981Zm2.038 3.666v5.044h1.404a9.854 9.854 0 0 1 1.585-.126c.547 0 1.078.044 1.582.126h.41v-5.044h-4.98Zm2.989 5.416c-2.58 0-4.785.985-5.614 2.357h40.725c-1.043-1.038-2.948-1.734-5.117-1.734-2 0-3.774.59-4.856 1.494-1.075-.943-2.887-1.563-4.936-1.563-1.813 0-3.442.486-4.537 1.25-1.057-.998-2.925-1.665-5.047-1.665-2.264 0-4.241.758-5.25 1.87-.968-1.187-3.012-2.009-5.368-2.009ZM64 40.088c-13.17 0-23.913 10.741-23.913 23.912 0 13.17 10.742 23.913 23.913 23.913S87.913 77.17 87.913 64c0-13.17-10.742-23.913-23.913-23.913Zm0 .956c-12.644 0-22.956 10.312-22.956 22.956S51.356 86.956 64 86.956 86.956 76.643 86.956 64c0-12.644-10.312-22.956-22.956-22.956Zm34.327 36.554.354-.725-2.321-1.132-2.093-3.728-.411.846 1.093 1.847c.244.41.47.766.676 1.071-.394.02-.793.055-1.198.104l-2.18.274-.43.882 4.19-.571 2.32 1.132Zm-3.061 5.758.403-.698-4.658-2.69 1.009-1.746-.623-.36-2.416 4.185.623.36 1.004-1.74 4.657 2.689Zm-2.843 4.03.518-.618-4.671-3.919-.518.618 4.67 3.919ZM86 91.279c.295.28.633.46 1.01.538.38.08.758.043 1.135-.108.378-.15.761-.42 1.151-.81.308-.307.528-.64.662-.999.133-.359.164-.705.092-1.04a1.652 1.652 0 0 0-.451-.844 1.516 1.516 0 0 0-.792-.435c-.297-.058-.629-.018-.996.116-.251.094-.66.322-1.23.68-.568.36-.956.543-1.167.553a.695.695 0 0 1-.55-.215c-.178-.178-.251-.41-.22-.693.033-.286.22-.6.565-.946.33-.33.65-.512.96-.541.308-.031.614.076.916.318l.507-.588a1.865 1.865 0 0 0-.892-.468 1.725 1.725 0 0 0-1.017.11c-.349.14-.68.37-1 .69-.291.29-.505.603-.645.939a1.625 1.625 0 0 0-.11.972c.066.312.208.577.425.795a1.4 1.4 0 0 0 .688.386c.26.058.549.038.862-.06.242-.075.61-.262 1.101-.563.492-.3.817-.486.979-.557.248-.112.46-.157.64-.134.181.022.338.1.474.236a.885.885 0 0 1 .247.493c.031.193-.005.406-.106.638-.103.23-.262.455-.48.673a2.303 2.303 0 0 1-.79.533c-.28.11-.537.143-.769.1-.231-.046-.467-.164-.708-.355l-.491.586Zm-5.6 2.095 1.439-.97c.304-.205.523-.399.652-.578a.918.918 0 0 0 .188-.57.99.99 0 0 0-.171-.543.906.906 0 0 0-.658-.414c-.277-.037-.603.071-.978.325l-1.599 1.078 1.127 1.672Zm1.237 3.275.668-.45-1.514-2.245.775-.524c.173-.116.302-.192.39-.228.121-.045.252-.068.395-.07.144-.004.333.033.568.11.234.073.553.197.952.368l1.378.601.842-.567-1.808-.783a4.258 4.258 0 0 0-1.007-.297 2.047 2.047 0 0 0-.575.02c.44-.394.694-.792.76-1.195a1.525 1.525 0 0 0-.264-1.14 1.733 1.733 0 0 0-.723-.622 1.362 1.362 0 0 0-.886-.101c-.296.067-.67.253-1.12.557l-2.241 1.51 3.41 5.056Zm-6.418 2.455 4.301-1.481-.234-.682-3.54 1.22-.675-1.963 3.19-1.098-.234-.676-3.19 1.098-.607-1.765 3.405-1.173-.234-.68-4.168 1.435 1.986 5.765Zm-4.94 1.122.818-.13 1.404-6.395-.813.129-.933 4.631c-.072.349-.127.695-.17 1.038-.132-.293-.29-.605-.47-.936l-2.258-4.126-.865.136 3.287 5.653Zm-5.186.375h.807v-6.097h-.806v6.097Zm-7.378-.677.767.108.667-4.744 2.504 5.19.819.115.849-6.038-.766-.107-.665 4.74-2.506-5.186-.82-.115-.849 6.037Zm-1.54-6.711-.968 3.382c-.213.737-.476 1.198-.792 1.387-.317.19-.76.203-1.33.039-.334-.096-.598-.242-.791-.44a1.12 1.12 0 0 1-.327-.697c-.025-.267.035-.657.18-1.165l.97-3.383-.774-.222-.972 3.387c-.178.62-.244 1.13-.197 1.532.046.402.217.747.512 1.036.294.29.718.513 1.265.67.566.163 1.053.185 1.463.067.41-.117.73-.33.964-.638.233-.308.435-.758.603-1.345l.971-3.388-.776-.222Zm-10.588 2.066.705.392 2.956-5.334-.705-.39-2.956 5.332Zm.78-6.666-2.165 2.774c-.472.602-.89.93-1.253.988-.365.057-.781-.097-1.249-.462-.273-.214-.462-.448-.568-.703a1.122 1.122 0 0 1-.041-.77c.076-.257.277-.595.604-1.012l2.166-2.773-.635-.497-2.17 2.776c-.398.51-.65.958-.757 1.347-.107.39-.079.774.087 1.153.164.379.473.744.922 1.095.463.361.906.565 1.331.61.425.045.801-.031 1.134-.23.33-.199.686-.54 1.062-1.022l2.17-2.777-.637-.497ZM34.694 85.55l.498.637 2.264-1.77 1.951 2.497-2.264 1.769.497.637 4.805-3.754-.497-.637-1.974 1.543-1.95-2.498 1.973-1.541-.498-.636-4.804 3.753Zm-3.677-6.353.363.683 4.23-2.25-2.727 5.078.389.73 5.384-2.861-.363-.684-4.227 2.248 2.723-5.075-.388-.731-5.384 2.862Zm1.075-6.016.359 2.036 1.552-.921c.47-.279.86-.494 1.17-.645-.4-.008-.8-.049-1.205-.121l-1.876-.35Zm-2.772-1.298.149.844 1.934.338.444 2.511-1.695 1.022.159.905 5.571-3.517-.15-.855-6.412-1.248ZM64 20c-24.234 0-44 19.766-44 44s19.766 44 44 44 44-19.766 44-44-19.766-44-44-44Zm0 1.913c23.18 0 42.087 18.906 42.087 42.087 0 23.18-18.906 42.087-42.087 42.087-23.18 0-42.087-18.907-42.087-42.087 0-23.18 18.906-42.087 42.087-42.087Z" fill="#2B5293"/></svg>